<svg xmlns="http://www.w3.org/2000/svg" width="24" height="24" viewBox="0 0 24 24">
  <path fill="currentColor" opacity="0.3" d="M12 3C7.8 3 3.7 4.4 0.4 7C0.1 7.2 0 7.5 0 7.9C0 8.2 0.1 8.5 0.4 8.7L2 10.6C5.1 8.1 8.5 7 12 7C15.5 7 18.9 8.1 22 10.6L23.6 8.7C23.9 8.5 24 8.2 24 7.9C24 7.5 23.9 7.2 23.6 7C20.3 4.4 16.2 3 12 3Z M12 11C9.8 11 7.7 11.7 5.9 13.1L7.5 15C8.8 14 10.4 13.4 12 13.4C13.6 13.4 15.2 14 16.5 15L18.1 13.1C16.3 11.7 14.2 11 12 11Z"/>
  <path fill="currentColor" d="M12 13.4C10.4 13.4 8.8 14 7.5 15L11.4 21.8C11.6 22 11.8 22.1 12 22.1C12.2 22.1 12.4 22 12.6 21.8L16.5 15C15.2 14 13.6 13.4 12 13.4Z"/>
</svg>
